#!OML:ASF F:\VICON\USERDATA\INSTALL\rory3\rory3.ASF
:FULLY-SPECIFIED
:DEGREES
38
root -1.13885 17.5263 5.07109 -11.9836 -84.1474 31.6101
lowerback -11.7287 1.69824 7.49545
upperback -13.716 0.892835 -0.404558
thorax -8.0307 -0.650427 -4.51948
lowerneck -5.89112 17.8518 12.717
upperneck 11.9322 22.4734 1.98501
head 5.73133 11.632 0.49191
rclavicle -9.34288e-015 2.70347e-014
rhumerus 7.32063 -26.0681 28.0291
rradius 115.069
rwrist -62.2465
rhand -6.62104 -51.2838
rfingers 7.12502
rthumb 19.2353 -80.3525
lclavicle -9.34288e-015 2.70347e-014
lhumerus 35.0013 38.372 -4.36719
lradius 28.7746
lwrist 36.8402
lhand -23.8439 -22.9333
lfingers 7.12502
lthumb 2.62808 7.03025
rfemur -6.68426 12.8854 -9.0838
rtibia 14.1405
rfoot -23.9879 -23.4443
rtoes 46.9107
lfemur -12.5931 4.29995 -33.2478
ltibia 3.7481
lfoot -11.3174 7.11403
ltoes 19.0176
39
root -1.13944 17.5256 5.07199 -11.4078 -84.1885 31.0096
lowerback -11.7207 1.31813 7.60791
upperback -13.7501 0.388689 0.0163819
thorax -8.1466 -0.899885 -4.15143
lowerneck -5.43758 18.2442 12.2062
upperneck 11.9484 23.1008 2.22235
head 5.60474 11.9383 0.627469
rclavicle -4.37326e-015 1.90833e-014
rhumerus 8.60427 -26.6011 27.0043
rradius 115.11
rwrist -61.9251
rhand -6.43746 -53.3339
rfingers 7.12502
rthumb 19.4118 -82.3849
lclavicle -4.37326e-015 1.90833e-014
lhumerus 32.691 37.6749 -6.52502
lradius 29.0531
lwrist 37.5837
lhand -24.0321 -22.7342
lfingers 7.12502
lthumb 2.44635 7.23147
rfemur -6.73822 12.7046 -9.00018
rtibia 14.2395
rfoot -23.1468 -24.0288
rtoes 45.9883
lfemur -12.5045 4.33103 -33.1794
ltibia 3.62082
lfoot -11.2444 7.16354
ltoes 18.8961
40
root -1.13817 17.5266 5.07344 -10.2794 -84.1866 29.8636
lowerback -11.7458 1.46374 7.6428
upperback -13.7052 0.583884 0.029628
thorax -8.05498 -0.796608 -4.1482
lowerneck -5.89159 18.1541 11.7261
upperneck 12.3059 22.9217 2.55963
head 5.68954 11.8593 0.811899
rclavicle 4.57205e-015 6.36111e-015
rhumerus 8.16309 -26.5574 27.5595
rradius 115.142
rwrist -61.8912
rhand -6.21552 -54.2601
rfingers 7.12502
rthumb 19.6252 -83.2895
lclavicle 4.57205e-015 6.36111e-015
lhumerus 33.0541 37.7428 -5.94765
lradius 29.0383
lwrist 37.6089
lhand -24.1981 -22.7623
lfingers 7.12502
lthumb 2.28608 7.20522
rfemur -6.76582 12.5048 -8.8663
rtibia 14.3112
rfoot -22.0922 -24.7526
rtoes 45.1836
lfemur -12.4502 4.31105 -33.0611
ltibia 3.5429
lfoot -11.2086 7.15215
ltoes 18.7604
41
root -1.13434 17.5275 5.07324 -10.4122 -84.1468 29.9932
lowerback -11.7286 1.41254 7.60114
upperback -13.7045 0.523929 0.125576
thorax -8.07062 -0.817982 -4.02439
lowerneck -5.89425 18.1814 11.4147
upperneck 12.5725 23.0185 2.42678
head 5.7593 11.8928 0.832357
rclavicle -8.94531e-015 3.10104e-014
rhumerus 8.35827 -26.6721 27.5545
rradius 115.016
rwrist -61.7541
rhand -5.9335 -54.5484
rfingers 7.12502
rthumb 19.8963 -83.55
lclavicle -8.94531e-015 3.10104e-014
lhumerus 32.6772 37.517 -6.16915
lradius 29.0284
lwrist 37.5917
lhand -24.6046 -22.5129
lfingers 7.12502
lthumb 1.89343 7.45847
rfemur -6.77307 12.4438 -8.88293
rtibia 14.3305
rfoot -21.4893 -25.217
rtoes 45.2499
lfemur -12.4933 4.27374 -33.0915
ltibia 3.61763
lfoot -11.1738 7.18217
ltoes 18.2837
42
root -1.13214 17.5278 5.07282 -11.0034 -84.1452 30.584
lowerback -11.7287 1.64908 7.48874
upperback -13.6388 0.838958 -0.266792
thorax -7.94936 -0.659979 -4.37052
lowerneck -6.50788 18.0156 12.3705
upperneck 12.6232 22.5577 2.56719
head 5.94927 11.7068 0.796329
rclavicle 3.97569e-016 -9.54166e-015
rhumerus 7.2871 -26.3607 28.0633
rradius 115.023
rwrist -61.8476
rhand -5.62404 -55.2942
rfingers 7.12502
rthumb 20.1937 -84.2646
lclavicle 3.97569e-016 -9.54166e-015
lhumerus 34.168 37.8489 -5.10288
lradius 28.8362
lwrist 37.091
lhand -24.8374 -22.1229
lfingers 7.12502
lthumb 1.66856 7.85029
rfemur -6.77537 12.3929 -8.97111
rtibia 14.3009
rfoot -21.2767 -25.3813
rtoes 45.2542
lfemur -12.611 4.28454 -33.1535
ltibia 3.80979
lfoot -11.2481 7.18236
ltoes 18.2835
43
root -1.13347 17.5269 5.07545 -11.6478 -84.1875 31.2195
lowerback -11.7611 1.38367 7.49321
upperback -13.6603 0.49025 0.118206
thorax -8.00317 -0.820306 -3.97445
lowerneck -6.14735 18.2636 11.4085
upperneck 13.0055 23.0909 2.47094
head 5.93602 11.9358 0.905714
rclavicle -1.59028e-014 -1.19271e-014
rhumerus 8.48153 -26.7442 27.3893
rradius 114.971
rwrist -61.8204
rhand -5.44333 -55.0572
rfingers 7.12502
rthumb 20.3674 -84.0091
lclavicle -1.59028e-014 -1.19271e-014
lhumerus 32.8599 37.871 -5.91908
lradius 28.9579
lwrist 37.163
lhand -24.5828 -21.4777
lfingers 7.12502
lthumb 1.9145 8.49343
rfemur -6.76253 12.362 -9.06495
rtibia 14.2479
rfoot -20.5702 -25.8183
rtoes 44.4032
lfemur -12.6997 4.33866 -33.217
ltibia 3.99878
lfoot -11.4367 7.11839
ltoes 19.0454
44
root -1.13344 17.5274 5.07824 -11.9824 -84.2411 31.5473
lowerback -11.7931 1.59053 7.5141
upperback -13.6245 0.753951 -0.176913
thorax -7.90943 -0.69924 -4.29169
lowerneck -6.36884 18.1252 11.997
upperneck 13.0937 22.8135 2.34773
head 6.07277 11.8143 0.815728
rclavicle -1.45113e-014 1.11319e-014
rhumerus 7.67041 -26.5551 27.7462
rradius 114.96
rwrist -61.5726
rhand -5.02036 -54.3085
rfingers 7.12502
rthumb 20.7739 -83.2165
lclavicle -1.45113e-014 1.11319e-014
lhumerus 34.3213 38.413 -4.73295
lradius 28.7847
lwrist 36.7761
lhand -24.2793 -21.051
lfingers 7.12502
lthumb 2.20766 8.91735
rfemur -6.74311 12.5008 -9.10601
rtibia 14.184
rfoot -21.0028 -25.5108
rtoes 44.8849
lfemur -12.7816 4.39925 -33.2383
ltibia 4.18463
lfoot -11.622 6.99304
ltoes 19.9303
